<svg width="152" height="45" viewBox="0 0 152 45" fill="none" xmlns="http://www.w3.org/2000/svg">
<path fill-rule="evenodd" clip-rule="evenodd" d="M75.2143 18H78.3599V23.7143H78.4567C78.7954 23.3333 79.231 23.0317 79.7633 22.8095C80.2956 22.5873 80.8844 22.4762 81.5297 22.4762C82.9815 22.4762 84.0906 22.9643 84.8568 23.9405C85.623 24.9167 86.0062 26.4048 86.0062 28.4048C86.0062 30.5476 85.4698 32.1746 84.3971 33.2857C83.3243 34.3968 81.8523 34.9524 79.9811 34.9524C78.9487 34.9524 78.005 34.869 77.15 34.7024C76.2951 34.5357 75.6498 34.3492 75.2143 34.1429V18ZM44 22.7619H45.6696V20.5238L48.4457 19.6828L48.8152 22.7619H51.7673V25.381H48.8152V29.9524C48.8152 30.7778 48.8999 31.369 49.0693 31.7262C49.2387 32.0833 49.5573 32.2619 50.0251 32.2619C50.3477 32.2619 50.626 32.2302 50.8599 32.1667C51.0938 32.1032 51.3559 32.0079 51.6463 31.881L52.2028 34.2619C51.7673 34.4683 51.2591 34.6429 50.6784 34.7857C50.0977 34.9286 49.5089 35 48.912 35C47.7989 35 46.9803 34.7183 46.456 34.1548C45.9317 33.5913 45.6696 32.6667 45.6696 31.381V25.381H44V22.7619ZM56.7277 22.7619V29.5238C56.7277 30.4921 56.8446 31.1905 57.0785 31.619C57.3124 32.0476 57.7681 32.2619 58.4457 32.2619C59.0425 32.2619 59.5386 32.0873 59.9338 31.7381C60.329 31.3889 60.6234 30.9603 60.817 30.4524V22.7619H63.9626V31.0476C63.9626 31.6984 63.9949 32.3373 64.0594 32.9643C64.1239 33.5913 64.2207 34.1587 64.3498 34.6667H61.9784L61.4219 32.9048H61.3251C60.9541 33.5079 60.4379 34.0079 59.7765 34.4048C59.1151 34.8016 58.3328 35 57.4294 35C56.8164 35 56.2679 34.9206 55.784 34.7619C55.3 34.6032 54.8968 34.3413 54.5741 33.9762C54.2515 33.6111 54.0055 33.1191 53.8361 32.5C53.6667 31.8809 53.5821 31.1032 53.5821 30.1667V22.7619H56.7277ZM72.0444 25.4048C72.4477 25.4048 72.8994 25.4921 73.3995 25.6667L73.8108 22.7619C73.2785 22.5873 72.8026 22.5 72.3832 22.5C71.7541 22.5 71.2056 22.6587 70.7378 22.9762C70.27 23.2937 69.899 23.746 69.6247 24.3333H69.5279L69.165 22.7619H66.7211V34.6667H69.8667V26.9762C69.9957 26.5159 70.2498 26.1389 70.6289 25.8452C71.008 25.5516 71.4798 25.4048 72.0444 25.4048ZM79.1947 25.5357C79.5576 25.2421 80.0295 25.0952 80.6102 25.0952C82.0459 25.0952 82.7637 26.2301 82.7637 28.5C82.7637 29.8333 82.5419 30.8056 82.0983 31.4167C81.6547 32.0278 81.0054 32.3333 80.1505 32.3333C79.8117 32.3333 79.4931 32.3095 79.1947 32.2619C78.8962 32.2143 78.618 32.127 78.3599 32V26.8095C78.5535 26.254 78.8317 25.8294 79.1947 25.5357ZM87.6032 28.7143C87.6032 26.6984 88.1032 25.1468 89.1034 24.0595C90.1035 22.9722 91.507 22.4286 93.3137 22.4286C94.2816 22.4286 95.1204 22.5794 95.8302 22.881C96.54 23.1825 97.1288 23.6071 97.5966 24.1548C98.0644 24.7024 98.4152 25.3651 98.6491 26.1429C98.883 26.9206 99 27.7778 99 28.7143C99 30.7302 98.504 32.2817 97.5119 33.369C96.5198 34.4564 95.1204 35 93.3137 35C92.3458 35 91.507 34.8492 90.7972 34.5476C90.0874 34.246 89.4946 33.8214 89.0187 33.2738C88.5428 32.7262 88.1879 32.0635 87.954 31.2857C87.7201 30.5079 87.6032 29.6508 87.6032 28.7143ZM90.9908 30.1667C90.894 29.7222 90.8456 29.2381 90.8456 28.7143C90.8456 27.4127 91.0634 26.4762 91.4989 25.9048C91.9344 25.3333 92.5394 25.0476 93.3137 25.0476C94.2009 25.0476 94.83 25.3849 95.2011 26.0595C95.5721 26.7341 95.7576 27.619 95.7576 28.7143C95.7576 29.9841 95.5559 30.9127 95.1527 31.5C94.7494 32.0873 94.1364 32.381 93.3137 32.381C92.8781 32.381 92.5031 32.2897 92.1885 32.1071C91.874 31.9246 91.6199 31.6667 91.4263 31.3333C91.2327 31 91.0875 30.6111 90.9908 30.1667Z" fill="white"/>
<path fill-rule="evenodd" clip-rule="evenodd" d="M111.012 34.7665C111.809 34.6108 112.465 34.3539 112.981 33.9959L112.304 31.3805C111.934 31.5984 111.499 31.7775 111 31.9176C110.501 32.0577 109.889 32.1277 109.164 32.1277C108.391 32.1277 107.711 31.9915 107.123 31.7191C106.535 31.4467 106.044 31.0652 105.65 30.5749C105.255 30.0845 104.961 29.4929 104.768 28.8001C104.575 28.1074 104.478 27.3407 104.478 26.5C104.478 24.5696 104.885 23.1452 105.698 22.2266C106.511 21.3081 107.586 20.8489 108.923 20.8489C109.647 20.8489 110.263 20.8878 110.771 20.9657C111.278 21.0435 111.717 21.168 112.087 21.3393L112.739 18.6305C112.304 18.4592 111.753 18.3114 111.085 18.1868C110.416 18.0623 109.599 18 108.633 18C107.731 18 106.829 18.144 105.928 18.432C105.026 18.72 104.209 19.1948 103.476 19.8565C102.743 20.5181 102.147 21.3899 101.688 22.4718C101.229 23.5538 101 24.8965 101 26.5C101 28.0412 101.205 29.3528 101.616 30.4348C102.027 31.5167 102.578 32.3963 103.271 33.0735C103.963 33.7507 104.764 34.2411 105.674 34.5446C106.584 34.8482 107.546 35 108.56 35C109.398 35 110.215 34.9222 111.012 34.7665ZM116.229 18.3152C115.803 18.3697 115.404 18.4281 115.034 18.4904V34.6731H118.343V27.9712L120.082 28.2747L123.923 34.6731H127.739L123.874 28.4382L122.691 27.7143C123.77 27.3874 124.631 26.8036 125.275 25.9629C125.919 25.1222 126.242 24.0325 126.242 22.6937C126.242 21.7907 126.06 21.0396 125.698 20.4402C125.336 19.8409 124.853 19.37 124.249 19.0275C123.645 18.685 122.961 18.4437 122.196 18.3036C121.431 18.1635 120.654 18.0934 119.865 18.0934C119.527 18.0934 119.156 18.1012 118.754 18.1168C118.351 18.1323 117.936 18.1557 117.51 18.1868C117.083 18.2179 116.656 18.2608 116.229 18.3152ZM120.106 20.9423C119.768 20.9423 119.434 20.9501 119.104 20.9657C118.774 20.9812 118.52 21.0124 118.343 21.0591V25.7995H119.744C120.662 25.7995 121.395 25.5971 121.942 25.1923C122.49 24.7875 122.763 24.1181 122.763 23.1841C122.763 22.4835 122.538 21.9348 122.087 21.5378C121.636 21.1408 120.976 20.9423 120.106 20.9423ZM143.053 22.9505L142.691 26.1964V34.6731H146V18.3269H143.005L138.729 25.7527L138.005 27.6676H137.908L137.111 25.7995L132.594 18.3269H129.575V34.6731H132.715V26.1731L132.232 22.9505H132.353L133.415 25.5426L137.208 31.6607H138.271L141.87 25.5659L142.908 22.9505H143.053Z" fill="white"/>
<path d="M24.8438 25.6183C26.3741 23.9686 25.861 21.3462 24.2864 20.0195C22.064 18.1466 18.7192 18.9804 17.0297 21.2941C14.8265 24.3106 15.7869 28.5781 18.6239 30.6368C22.14 33.1911 27.1109 31.8475 29.5283 28.2086C32.4276 23.8469 31.0025 17.9 26.8991 15.1226C22.0993 11.8733 15.4856 13.7361 12.3476 18.7024C8.74417 24.4028 10.6359 32.0422 16.0135 35.5323C22.0929 39.4836 30.3567 37.0976 34.2128 30.799C38.5204 23.7662 36.1606 14.4257 29.5119 10.2257C26.3982 8.25849 19.9143 6.98352 14.4003 9.77049C8.88639 12.5575 5.48125 20.3463 5.48125 20.3463" stroke="white" stroke-width="3.5" stroke-linecap="round" stroke-linejoin="round"/>
</svg>
