<svg xmlns="http://www.w3.org/2000/svg" xmlns:xlink="http://www.w3.org/1999/xlink"><defs>
<linearGradient id="cloud_linear" x1="64" y1="0" x2="0" y2="0" gradientUnits="userSpaceOnUse">
<stop offset="0" stop-color="#960FFC"/>
<stop offset="1" stop-color="#0F85DB"/>
</linearGradient>

<linearGradient id="message_linear" x1="64" y1="0" x2="0" y2="0" gradientUnits="userSpaceOnUse">
<stop offset="0" stop-color="#960FFC"/>
<stop offset="1" stop-color="#0F85DB"/>
</linearGradient>

<linearGradient id="plane_linear" x1="64" y1="0" x2="0" y2="0" gradientUnits="userSpaceOnUse">
<stop offset="0" stop-color="#960FFC"/>
<stop offset="1" stop-color="#0F85DB"/>
</linearGradient>
</defs><symbol id="arrow-down" viewBox="0 0 11 7">
<path opacity="0.500186" d="M5.375 4.49112L2.06694 1.18306C1.82286 0.938981 1.42714 0.938981 1.18306 1.18306C0.938981 1.42714 0.938981 1.82286 1.18306 2.06694L4.93306 5.81694C5.17714 6.06102 5.57286 6.06102 5.81694 5.81694L9.56694 2.06694C9.81102 1.82286 9.81102 1.42714 9.56694 1.18306C9.32286 0.938981 8.92714 0.938981 8.68306 1.18306L5.375 4.49112Z" fill="#383838" stroke="#383838"/>
</symbol><symbol id="attachment" viewBox="0 0 15 15">
<g opacity="0.500674">
<path fill-rule="evenodd" clip-rule="evenodd" d="M5.625 10H3.75C3.08696 10 2.45107 9.73661 1.98223 9.26777C1.51339 8.79893 1.25 8.16304 1.25 7.5C1.25 6.11929 2.36929 5 3.75 5H5.625C5.97018 5 6.25 4.72018 6.25 4.375C6.25 4.02982 5.97018 3.75 5.625 3.75H3.75C1.67893 3.75 0 5.42893 0 7.5C0 8.49456 0.395088 9.44839 1.09835 10.1517C1.80161 10.8549 2.75544 11.25 3.75 11.25H5.625C5.97018 11.25 6.25 10.9702 6.25 10.625C6.25 10.2798 5.97018 10 5.625 10ZM9.375 5H11.25C11.913 5 12.5489 5.26339 13.0178 5.73223C13.4866 6.20107 13.75 6.83696 13.75 7.5C13.75 8.88071 12.6307 10 11.25 10H9.375C9.02982 10 8.75 10.2798 8.75 10.625C8.75 10.9702 9.02982 11.25 9.375 11.25H11.25C13.3211 11.25 15 9.57107 15 7.5C15 6.50544 14.6049 5.55161 13.9017 4.84835C13.1984 4.14509 12.2446 3.75 11.25 3.75H9.375C9.02982 3.75 8.75 4.02982 8.75 4.375C8.75 4.72018 9.02982 5 9.375 5ZM10 8.125H5C4.65482 8.125 4.375 7.84518 4.375 7.5C4.375 7.15482 4.65482 6.875 5 6.875H10C10.3452 6.875 10.625 7.15482 10.625 7.5C10.625 7.84518 10.3452 8.125 10 8.125Z" fill="black"/>
<mask id="attachment-mask" mask-type="alpha" maskUnits="userSpaceOnUse" x="0" y="3" width="15" height="9">
<path fill-rule="evenodd" clip-rule="evenodd" d="M5.625 10H3.75C3.08696 10 2.45107 9.73661 1.98223 9.26777C1.51339 8.79893 1.25 8.16304 1.25 7.5C1.25 6.11929 2.36929 5 3.75 5H5.625C5.97018 5 6.25 4.72018 6.25 4.375C6.25 4.02982 5.97018 3.75 5.625 3.75H3.75C1.67893 3.75 0 5.42893 0 7.5C0 8.49456 0.395088 9.44839 1.09835 10.1517C1.80161 10.8549 2.75544 11.25 3.75 11.25H5.625C5.97018 11.25 6.25 10.9702 6.25 10.625C6.25 10.2798 5.97018 10 5.625 10ZM9.375 5H11.25C11.913 5 12.5489 5.26339 13.0178 5.73223C13.4866 6.20107 13.75 6.83696 13.75 7.5C13.75 8.88071 12.6307 10 11.25 10H9.375C9.02982 10 8.75 10.2798 8.75 10.625C8.75 10.9702 9.02982 11.25 9.375 11.25H11.25C13.3211 11.25 15 9.57107 15 7.5C15 6.50544 14.6049 5.55161 13.9017 4.84835C13.1984 4.14509 12.2446 3.75 11.25 3.75H9.375C9.02982 3.75 8.75 4.02982 8.75 4.375C8.75 4.72018 9.02982 5 9.375 5ZM10 8.125H5C4.65482 8.125 4.375 7.84518 4.375 7.5C4.375 7.15482 4.65482 6.875 5 6.875H10C10.3452 6.875 10.625 7.15482 10.625 7.5C10.625 7.84518 10.3452 8.125 10 8.125Z" fill="white"/>
</mask>
</g>
</symbol><symbol id="calendar" viewBox="0 0 14 14">
<rect opacity="0.649251" x="1" y="1" width="12" height="12" rx="1" stroke="#383838" fill="#ffffff" stroke-width="2"/>
<rect x="2" y="4" width="11" height="1" fill="#7D7D7D"/>
</symbol><symbol id="close" viewBox="0 0 18 18">
<g opacity="0.504836">
<path d="M11.5455 4.75746L4.75729 11.5457C4.28866 12.0143 4.28866 12.7741 4.75729 13.2427C5.22592 13.7114 5.98572 13.7114 6.45435 13.2427L13.2426 6.45452C13.7112 5.98589 13.7112 5.22609 13.2426 4.75746C12.7739 4.28883 12.0141 4.28883 11.5455 4.75746Z" fill="#4359FA"/>
<path d="M4.75743 6.45452L11.5457 13.2427C12.0143 13.7114 12.7741 13.7114 13.2427 13.2427C13.7113 12.7741 13.7113 12.0143 13.2427 11.5457L6.45449 4.75746C5.98586 4.28883 5.22606 4.28883 4.75743 4.75746C4.2888 5.22609 4.2888 5.98589 4.75743 6.45452Z" fill="#4359FA"/>
</g>
</symbol><symbol id="cloud" viewBox="0 0 64 64">
<path d="M32 0C14.3269 0 0 14.3269 0 32C0 49.6731 14.3269 64 32 64C49.6731 64 64 49.6731 64 32C64 14.3269 49.6731 0 32 0Z" fill="url(#cloud_linear)"/>
<path fill-rule="evenodd" clip-rule="evenodd" d="M33 42C39.6274 42 45 36.6274 45 30C45 23.3726 39.6274 18 33 18C26.3726 18 21 23.3726 21 30C21 36.6274 26.3726 42 33 42Z" fill="white"/>
<rect x="11" y="30" width="28" height="12" rx="6" fill="white"/>
<rect x="24" y="25" width="28" height="17" rx="7.5" fill="white"/>

</symbol><symbol id="edit" viewBox="0 0 16 17">
<g>
<path fill-rule="evenodd" clip-rule="evenodd" d="M10.1657 0.226327L13.3657 3.31724C13.6781 3.619 13.6781 4.10827 13.3657 4.41004L4.56568 12.91C4.41566 13.055 4.21217 13.1364 4 13.1364H0.8C0.358172 13.1364 0 12.7904 0 12.3636V9.27273C0 9.06779 0.0842855 8.87124 0.234315 8.72633L9.03431 0.226327C9.34673 -0.0754422 9.85327 -0.0754422 10.1657 0.226327ZM9.60006 1.86553L1.60007 9.5928V11.5909H3.66869L11.6687 3.86364L9.60006 1.86553ZM15.2 17H0.8C0.358172 17 0 16.654 0 16.2273C0 15.8005 0.358172 15.4545 0.8 15.4545H15.2C15.6418 15.4545 16 15.8005 16 16.2273C16 16.654 15.6418 17 15.2 17Z"/>
<mask id="mask0" mask-type="alpha" maskUnits="userSpaceOnUse" x="0" y="0" width="16" height="17">
<path fill-rule="evenodd" clip-rule="evenodd" d="M10.1657 0.226327L13.3657 3.31724C13.6781 3.619 13.6781 4.10827 13.3657 4.41004L4.56568 12.91C4.41566 13.055 4.21217 13.1364 4 13.1364H0.8C0.358172 13.1364 0 12.7904 0 12.3636V9.27273C0 9.06779 0.0842855 8.87124 0.234315 8.72633L9.03431 0.226327C9.34673 -0.0754422 9.85327 -0.0754422 10.1657 0.226327ZM9.60006 1.86553L1.60007 9.5928V11.5909H3.66869L11.6687 3.86364L9.60006 1.86553ZM15.2 17H0.8C0.358172 17 0 16.654 0 16.2273C0 15.8005 0.358172 15.4545 0.8 15.4545H15.2C15.6418 15.4545 16 15.8005 16 16.2273C16 16.654 15.6418 17 15.2 17Z" fill="white"/>
</mask>
<g mask="url(#mask0)">
</g>
</g>
</symbol><symbol id="eye" viewBox="0 0 16 15">
<g>
<path d="M15.3027 8C15.2251 8.07599 15.1345 8.16281 15.0315 8.25819C14.64 8.6209 14.0728 9.10502 13.3727 9.5886C11.963 10.5624 10.0636 11.5 8 11.5C5.93638 11.5 4.03703 10.5624 2.62732 9.5886C1.92722 9.10502 1.36001 8.6209 0.968464 8.25819C0.865494 8.16281 0.774858 8.07599 0.697337 8C0.774858 7.92401 0.865494 7.83719 0.968464 7.74181C1.36001 7.3791 1.92722 6.89498 2.62732 6.4114C4.03703 5.43765 5.93638 4.5 8 4.5C10.0636 4.5 11.963 5.43765 13.3727 6.4114C14.0728 6.89498 14.64 7.3791 15.0315 7.74181C15.1345 7.83719 15.2251 7.92401 15.3027 8Z" fill="white" stroke="#BBBBBB"/>
<path fill-rule="evenodd" clip-rule="evenodd" d="M8 10C9.10457 10 10 9.10457 10 8C10 6.89543 9.10457 6 8 6C6.89543 6 6 6.89543 6 8C6 9.10457 6.89543 10 8 10Z" fill="#BBBBBB"/>
<path d="M12.5 1.5L3.5 13.5" stroke="#BBBBBB" stroke-linecap="square"/>
<path d="M13.5 1.5L4.5 13.5" stroke="white" stroke-linecap="square"/>
</g>
</symbol><symbol id="flag-red" viewBox="0 0 13 15">
<rect width="2" height="15" fill="#979797"/>
<path d="M8.41038 5.60437L10.9862 9H1V1H10.9862L8.41038 4.39563L7.95192 5L8.41038 5.60437Z" stroke="#BE0000" fill="#BE0000" stroke-width="2"/>
</symbol><symbol id="flag" viewBox="0 0 13 15">
<rect width="2" height="15" fill="#979797"/>
<path d="M8.41038 5.60437L10.9862 9H1V1H10.9862L8.41038 4.39563L7.95192 5L8.41038 5.60437Z" stroke="#979797" fill="#ffffff" stroke-width="2"/>
</symbol><symbol id="logo-mono" viewBox="0 0 152 45">
<path fill-rule="evenodd" clip-rule="evenodd" d="M75.2143 18H78.3599V23.7143H78.4567C78.7954 23.3333 79.231 23.0317 79.7633 22.8095C80.2956 22.5873 80.8844 22.4762 81.5297 22.4762C82.9815 22.4762 84.0906 22.9643 84.8568 23.9405C85.623 24.9167 86.0062 26.4048 86.0062 28.4048C86.0062 30.5476 85.4698 32.1746 84.3971 33.2857C83.3243 34.3968 81.8523 34.9524 79.9811 34.9524C78.9487 34.9524 78.005 34.869 77.15 34.7024C76.2951 34.5357 75.6498 34.3492 75.2143 34.1429V18ZM44 22.7619H45.6696V20.5238L48.4457 19.6828L48.8152 22.7619H51.7673V25.381H48.8152V29.9524C48.8152 30.7778 48.8999 31.369 49.0693 31.7262C49.2387 32.0833 49.5573 32.2619 50.0251 32.2619C50.3477 32.2619 50.626 32.2302 50.8599 32.1667C51.0938 32.1032 51.3559 32.0079 51.6463 31.881L52.2028 34.2619C51.7673 34.4683 51.2591 34.6429 50.6784 34.7857C50.0977 34.9286 49.5089 35 48.912 35C47.7989 35 46.9803 34.7183 46.456 34.1548C45.9317 33.5913 45.6696 32.6667 45.6696 31.381V25.381H44V22.7619ZM56.7277 22.7619V29.5238C56.7277 30.4921 56.8446 31.1905 57.0785 31.619C57.3124 32.0476 57.7681 32.2619 58.4457 32.2619C59.0425 32.2619 59.5386 32.0873 59.9338 31.7381C60.329 31.3889 60.6234 30.9603 60.817 30.4524V22.7619H63.9626V31.0476C63.9626 31.6984 63.9949 32.3373 64.0594 32.9643C64.1239 33.5913 64.2207 34.1587 64.3498 34.6667H61.9784L61.4219 32.9048H61.3251C60.9541 33.5079 60.4379 34.0079 59.7765 34.4048C59.1151 34.8016 58.3328 35 57.4294 35C56.8164 35 56.2679 34.9206 55.784 34.7619C55.3 34.6032 54.8968 34.3413 54.5741 33.9762C54.2515 33.6111 54.0055 33.1191 53.8361 32.5C53.6667 31.8809 53.5821 31.1032 53.5821 30.1667V22.7619H56.7277ZM72.0444 25.4048C72.4477 25.4048 72.8994 25.4921 73.3995 25.6667L73.8108 22.7619C73.2785 22.5873 72.8026 22.5 72.3832 22.5C71.7541 22.5 71.2056 22.6587 70.7378 22.9762C70.27 23.2937 69.899 23.746 69.6247 24.3333H69.5279L69.165 22.7619H66.7211V34.6667H69.8667V26.9762C69.9957 26.5159 70.2498 26.1389 70.6289 25.8452C71.008 25.5516 71.4798 25.4048 72.0444 25.4048ZM79.1947 25.5357C79.5576 25.2421 80.0295 25.0952 80.6102 25.0952C82.0459 25.0952 82.7637 26.2301 82.7637 28.5C82.7637 29.8333 82.5419 30.8056 82.0983 31.4167C81.6547 32.0278 81.0054 32.3333 80.1505 32.3333C79.8117 32.3333 79.4931 32.3095 79.1947 32.2619C78.8962 32.2143 78.618 32.127 78.3599 32V26.8095C78.5535 26.254 78.8317 25.8294 79.1947 25.5357ZM87.6032 28.7143C87.6032 26.6984 88.1032 25.1468 89.1034 24.0595C90.1035 22.9722 91.507 22.4286 93.3137 22.4286C94.2816 22.4286 95.1204 22.5794 95.8302 22.881C96.54 23.1825 97.1288 23.6071 97.5966 24.1548C98.0644 24.7024 98.4152 25.3651 98.6491 26.1429C98.883 26.9206 99 27.7778 99 28.7143C99 30.7302 98.504 32.2817 97.5119 33.369C96.5198 34.4564 95.1204 35 93.3137 35C92.3458 35 91.507 34.8492 90.7972 34.5476C90.0874 34.246 89.4946 33.8214 89.0187 33.2738C88.5428 32.7262 88.1879 32.0635 87.954 31.2857C87.7201 30.5079 87.6032 29.6508 87.6032 28.7143ZM90.9908 30.1667C90.894 29.7222 90.8456 29.2381 90.8456 28.7143C90.8456 27.4127 91.0634 26.4762 91.4989 25.9048C91.9344 25.3333 92.5394 25.0476 93.3137 25.0476C94.2009 25.0476 94.83 25.3849 95.2011 26.0595C95.5721 26.7341 95.7576 27.619 95.7576 28.7143C95.7576 29.9841 95.5559 30.9127 95.1527 31.5C94.7494 32.0873 94.1364 32.381 93.3137 32.381C92.8781 32.381 92.5031 32.2897 92.1885 32.1071C91.874 31.9246 91.6199 31.6667 91.4263 31.3333C91.2327 31 91.0875 30.6111 90.9908 30.1667Z" fill="white"/>
<path fill-rule="evenodd" clip-rule="evenodd" d="M111.012 34.7665C111.809 34.6108 112.465 34.3539 112.981 33.9959L112.304 31.3805C111.934 31.5984 111.499 31.7775 111 31.9176C110.501 32.0577 109.889 32.1277 109.164 32.1277C108.391 32.1277 107.711 31.9915 107.123 31.7191C106.535 31.4467 106.044 31.0652 105.65 30.5749C105.255 30.0845 104.961 29.4929 104.768 28.8001C104.575 28.1074 104.478 27.3407 104.478 26.5C104.478 24.5696 104.885 23.1452 105.698 22.2266C106.511 21.3081 107.586 20.8489 108.923 20.8489C109.647 20.8489 110.263 20.8878 110.771 20.9657C111.278 21.0435 111.717 21.168 112.087 21.3393L112.739 18.6305C112.304 18.4592 111.753 18.3114 111.085 18.1868C110.416 18.0623 109.599 18 108.633 18C107.731 18 106.829 18.144 105.928 18.432C105.026 18.72 104.209 19.1948 103.476 19.8565C102.743 20.5181 102.147 21.3899 101.688 22.4718C101.229 23.5538 101 24.8965 101 26.5C101 28.0412 101.205 29.3528 101.616 30.4348C102.027 31.5167 102.578 32.3963 103.271 33.0735C103.963 33.7507 104.764 34.2411 105.674 34.5446C106.584 34.8482 107.546 35 108.56 35C109.398 35 110.215 34.9222 111.012 34.7665ZM116.229 18.3152C115.803 18.3697 115.404 18.4281 115.034 18.4904V34.6731H118.343V27.9712L120.082 28.2747L123.923 34.6731H127.739L123.874 28.4382L122.691 27.7143C123.77 27.3874 124.631 26.8036 125.275 25.9629C125.919 25.1222 126.242 24.0325 126.242 22.6937C126.242 21.7907 126.06 21.0396 125.698 20.4402C125.336 19.8409 124.853 19.37 124.249 19.0275C123.645 18.685 122.961 18.4437 122.196 18.3036C121.431 18.1635 120.654 18.0934 119.865 18.0934C119.527 18.0934 119.156 18.1012 118.754 18.1168C118.351 18.1323 117.936 18.1557 117.51 18.1868C117.083 18.2179 116.656 18.2608 116.229 18.3152ZM120.106 20.9423C119.768 20.9423 119.434 20.9501 119.104 20.9657C118.774 20.9812 118.52 21.0124 118.343 21.0591V25.7995H119.744C120.662 25.7995 121.395 25.5971 121.942 25.1923C122.49 24.7875 122.763 24.1181 122.763 23.1841C122.763 22.4835 122.538 21.9348 122.087 21.5378C121.636 21.1408 120.976 20.9423 120.106 20.9423ZM143.053 22.9505L142.691 26.1964V34.6731H146V18.3269H143.005L138.729 25.7527L138.005 27.6676H137.908L137.111 25.7995L132.594 18.3269H129.575V34.6731H132.715V26.1731L132.232 22.9505H132.353L133.415 25.5426L137.208 31.6607H138.271L141.87 25.5659L142.908 22.9505H143.053Z" fill="white"/>
<path d="M24.8438 25.6183C26.3741 23.9686 25.861 21.3462 24.2864 20.0195C22.064 18.1466 18.7192 18.9804 17.0297 21.2941C14.8265 24.3106 15.7869 28.5781 18.6239 30.6368C22.14 33.1911 27.1109 31.8475 29.5283 28.2086C32.4276 23.8469 31.0025 17.9 26.8991 15.1226C22.0993 11.8733 15.4856 13.7361 12.3476 18.7024C8.74417 24.4028 10.6359 32.0422 16.0135 35.5323C22.0929 39.4836 30.3567 37.0976 34.2128 30.799C38.5204 23.7662 36.1606 14.4257 29.5119 10.2257C26.3982 8.25849 19.9143 6.98352 14.4003 9.77049C8.88639 12.5575 5.48125 20.3463 5.48125 20.3463" stroke="white" stroke-width="3.5" stroke-linecap="round" stroke-linejoin="round"/>
</symbol><symbol id="message" viewBox="0 0 64 64">
<path d="M32 0C14.3269 0 0 14.3269 0 32C0 49.6731 14.3269 64 32 64C49.6731 64 64 49.6731 64 32C64 14.3269 49.6731 0 32 0Z" fill="url(#message_linear)"/>
<path fill-rule="evenodd" clip-rule="evenodd" d="M32.5 44.5263C42.165 44.5263 50 38.3644 50 30.7632C50 23.162 42.165 17 32.5 17C22.835 17 15 23.162 15 30.7632C15 34.2966 16.6931 37.5191 19.476 39.9561C20.9911 41.2829 19.0575 47.8809 20.8715 47.8809C22.6855 47.8809 29.7738 44.5263 32.5 44.5263Z" fill="white"/>

</symbol><symbol id="minus" viewBox="0 0 18 3">
<path d="M0.5 1.5H16.5" stroke="#3267E4" stroke-width="2" stroke-linecap="square"/>
</symbol><symbol id="mobile" viewBox="0 0 8 14">
<g>
<rect width="8" height="14" rx="2"/>
<rect x="1" y="1" width="6" height="12" rx="1" fill="#fff"/>
<path fill-rule="evenodd" clip-rule="evenodd" d="M4 12C4.55228 12 5 11.5523 5 11C5 10.4477 4.55228 10 4 10C3.44772 10 3 10.4477 3 11C3 11.5523 3.44772 12 4 12Z"/>
</g>
</symbol><symbol id="next" viewBox="0 0 8 12">
<path d="M7.1998 5.88027L2.30848 12L0.953229 10.8559L4.22189 6L0.799805 1.17073L2.15506 0L7.1998 5.88027Z" fill="#848484"/>
</symbol><symbol id="phone" viewBox="0 0 10 14">
<g>
<rect x="0.5" y="1.5" width="9" height="11" rx="0.5" fill="white" stroke="#383838"/>
<rect x="3" y="3" width="5" height="3" fill="#383838"/>
<rect x="0.5" y="0.5" width="3" height="13" rx="1.5" fill="white" stroke="#383838"/>
</g>
</symbol><symbol id="plane" viewBox="0 0 64 64">
<path d="M32 0C14.3269 0 0 14.3269 0 32C0 49.6731 14.3269 64 32 64C49.6731 64 64 49.6731 64 32C64 14.3269 49.6731 0 32 0Z" fill="url(#plane_linear)"/>
<path fill-rule="evenodd" clip-rule="evenodd" d="M41.6403 48.3826L47.6656 17.8503C47.6656 17.8503 47.746 17.4513 47.746 17.0522C47.746 16.4535 47.2104 16.254 46.7407 16.254C45.9767 16.2524 44.928 16.6259 44.9296 16.6275L10.6435 30.1456C10.6435 30.1456 9.14282 30.6213 9.14282 31.6191C9.14282 32.8163 10.6017 33.2346 10.6017 33.2346L18.5407 35.3301L40.368 22.513C40.7192 22.2472 41.2173 22.3108 41.4871 22.661C41.7537 23.0111 41.6882 23.5093 41.337 23.7751L25.641 38.2522L25.5384 38.8851L38.2335 49.3404C38.2335 49.3404 38.7112 49.7778 39.6377 49.7778C41.3813 49.7778 41.6403 48.3826 41.6403 48.3826Z" fill="white"/>

</symbol><symbol id="plus" viewBox="0 0 12 12">
<path d="M4.80005 1.2V10.8C4.80005 11.4627 5.33731 12 6.00005 12C6.66279 12 7.20005 11.4627 7.20005 10.8V1.2C7.20005 0.537258 6.66279 0 6.00005 0C5.33731 0 4.80005 0.537258 4.80005 1.2Z" fill="#4359FA"/>
<path d="M1.2 7.20005H10.8C11.4627 7.20005 12 6.66279 12 6.00005C12 5.33731 11.4627 4.80005 10.8 4.80005H1.2C0.537258 4.80005 0 5.33731 0 6.00005C0 6.66279 0.537258 7.20005 1.2 7.20005Z" fill="#4359FA"/>
</symbol><symbol id="settings" viewBox="0 0 16 16">
<path fill-rule="evenodd" clip-rule="evenodd" d="M13.8867 6C13.7442 5.99943 13.6118 5.92694 13.5325 5.81012C13.523 5.76466 13.5088 5.7202 13.4899 5.67749C13.4184 5.51543 13.4527 5.32615 13.5766 5.19951L13.6114 5.16474C13.9867 4.78986 14.1977 4.28082 14.1977 3.75C14.1977 3.21918 13.9867 2.71014 13.6111 2.335C13.2365 1.95997 12.7275 1.74895 12.1967 1.74895C11.6658 1.74895 11.1568 1.95997 10.7817 2.33552L10.7419 2.37526C10.6205 2.49396 10.4312 2.52828 10.2692 2.45676C10.1039 2.38587 10.0007 2.23006 9.99999 2.05734L10 2C10 0.89543 9.10457 0 8 0C6.89543 0 6 0.89543 6 2V2.11333C5.99943 2.25577 5.92694 2.38822 5.81012 2.46747C5.76466 2.47698 5.7202 2.49124 5.67749 2.51009C5.51543 2.58162 5.32615 2.5473 5.19951 2.42342L5.16474 2.3886C4.78986 2.0133 4.28082 1.80228 3.75 1.80228C3.21918 1.80228 2.71014 2.0133 2.335 2.38886C1.95997 2.76347 1.74895 3.27251 1.74895 3.80333C1.74895 4.33415 1.95997 4.8432 2.33552 5.21833L2.37526 5.25807C2.49396 5.37948 2.52828 5.56876 2.45676 5.73082C2.37956 5.93688 2.22229 6.04935 2 6.05333C0.89543 6.05333 0 6.94876 0 8.05333C0 9.1579 0.89543 10.0533 2 10.0533H2.11333C2.28339 10.054 2.4392 10.1572 2.50724 10.316C2.58162 10.4846 2.5473 10.6739 2.42342 10.8005L2.3886 10.8353C2.0133 11.2101 1.80228 11.7192 1.80228 12.25C1.80228 12.7808 2.0133 13.2899 2.38886 13.665C2.76347 14.04 3.27251 14.251 3.80333 14.251C4.33415 14.251 4.8432 14.04 5.21833 13.6645L5.25807 13.6247C5.37948 13.506 5.56876 13.4717 5.73082 13.5432C5.93688 13.6204 6.04935 13.7777 6.05333 14C6.05333 15.1046 6.94876 16 8.05333 16C9.1579 16 10.0533 15.1046 10.0533 14V13.8867C10.054 13.7166 10.1572 13.5608 10.316 13.4928C10.4846 13.4184 10.6739 13.4527 10.8005 13.5766L10.8353 13.6114C11.2101 13.9867 11.7192 14.1977 12.25 14.1977C12.7808 14.1977 13.2899 13.9867 13.665 13.6111C14.04 13.2365 14.251 12.7275 14.251 12.1967C14.251 11.6658 14.04 11.1568 13.6645 10.7817L13.6247 10.7419C13.506 10.6205 13.4717 10.4312 13.5461 10.2626C13.6141 10.1039 13.7699 10.0007 13.9427 9.99999L14 10C15.1046 10 16 9.10457 16 8C16 6.89543 15.1046 6 14 6H13.8867ZM4.26193 3.3714C4.74975 3.84864 5.45648 4.00189 6.08652 3.78103C6.14702 3.77311 6.20629 3.7569 6.26262 3.73276C6.90983 3.45537 7.33052 2.82014 7.33333 2.11599L7.33333 2C7.33333 1.63181 7.63181 1.33333 8 1.33333C8.36819 1.33333 8.66667 1.63181 8.66667 2V2.06C8.66948 2.7668 9.09017 3.40204 9.73738 3.67943C10.3915 3.96818 11.1632 3.82826 11.6795 3.32324L11.7247 3.27807C11.85 3.15262 12.0197 3.08228 12.1967 3.08228C12.3736 3.08228 12.5433 3.15262 12.6683 3.27781C12.794 3.40338 12.8644 3.57306 12.8644 3.75C12.8644 3.92694 12.794 4.09662 12.6689 4.22167L12.6286 4.26193C12.1514 4.74975 11.9981 5.45648 12.219 6.08652C12.2269 6.14702 12.2431 6.20629 12.2672 6.26262C12.5446 6.90983 13.1799 7.33052 13.884 7.33333L14 7.33333C14.3682 7.33333 14.6667 7.63181 14.6667 8C14.6667 8.36819 14.3682 8.66667 14 8.66667H13.94C13.2332 8.66948 12.598 9.09017 12.3234 9.73082C12.0318 10.3915 12.1717 11.1632 12.6768 11.6795L12.7219 11.7247C12.8474 11.85 12.9177 12.0197 12.9177 12.1967C12.9177 12.3736 12.8474 12.5433 12.7222 12.6683C12.5966 12.794 12.4269 12.8644 12.25 12.8644C12.0731 12.8644 11.9034 12.794 11.7783 12.6689L11.7381 12.6286C11.2166 12.1184 10.4449 11.9785 9.78416 12.2701C9.1435 12.5446 8.72281 13.1799 8.72001 13.884L8.72 14C8.72 14.3682 8.42152 14.6667 8.05333 14.6667C7.68514 14.6667 7.38667 14.3682 7.38667 14V13.94C7.36952 13.1992 6.91095 12.558 6.23012 12.3076C5.60845 12.0318 4.83677 12.1717 4.32049 12.6768L4.27526 12.7219C4.14995 12.8474 3.98027 12.9177 3.80333 12.9177C3.62639 12.9177 3.45671 12.8474 3.33167 12.7222C3.20596 12.5966 3.13562 12.4269 3.13562 12.25C3.13562 12.0731 3.20596 11.9034 3.33114 11.7783L3.3714 11.7381C3.88159 11.2166 4.02151 10.4449 3.72991 9.78416C3.45537 9.1435 2.82014 8.72281 2.11599 8.72001L2 8.72C1.63181 8.72 1.33333 8.42152 1.33333 8.05333C1.33333 7.68514 1.63181 7.38667 2 7.38667H2.06C2.80081 7.36952 3.44196 6.91095 3.69236 6.23012C3.96818 5.60845 3.82826 4.83677 3.32324 4.32049L3.27807 4.27526C3.15262 4.14995 3.08228 3.98027 3.08228 3.80333C3.08228 3.62639 3.15262 3.45671 3.27781 3.33167C3.40338 3.20596 3.57306 3.13562 3.75 3.13562C3.92694 3.13562 4.09662 3.20596 4.22167 3.33114L4.26193 3.3714ZM8 10.6667C6.52724 10.6667 5.33333 9.47276 5.33333 8C5.33333 6.52724 6.52724 5.33333 8 5.33333C9.47276 5.33333 10.6667 6.52724 10.6667 8C10.6667 9.47276 9.47276 10.6667 8 10.6667ZM9.33333 8C9.33333 8.73638 8.73638 9.33333 8 9.33333C7.26362 9.33333 6.66667 8.73638 6.66667 8C6.66667 7.26362 7.26362 6.66667 8 6.66667C8.73638 6.66667 9.33333 7.26362 9.33333 8Z"/>
<mask id="mask0" mask-type="alpha" maskUnits="userSpaceOnUse" x="0" y="0" width="16" height="16">
<path fill-rule="evenodd" clip-rule="evenodd" d="M13.8867 6C13.7442 5.99943 13.6118 5.92694 13.5325 5.81012C13.523 5.76466 13.5088 5.7202 13.4899 5.67749C13.4184 5.51543 13.4527 5.32615 13.5766 5.19951L13.6114 5.16474C13.9867 4.78986 14.1977 4.28082 14.1977 3.75C14.1977 3.21918 13.9867 2.71014 13.6111 2.335C13.2365 1.95997 12.7275 1.74895 12.1967 1.74895C11.6658 1.74895 11.1568 1.95997 10.7817 2.33552L10.7419 2.37526C10.6205 2.49396 10.4312 2.52828 10.2692 2.45676C10.1039 2.38587 10.0007 2.23006 9.99999 2.05734L10 2C10 0.89543 9.10457 0 8 0C6.89543 0 6 0.89543 6 2V2.11333C5.99943 2.25577 5.92694 2.38822 5.81012 2.46747C5.76466 2.47698 5.7202 2.49124 5.67749 2.51009C5.51543 2.58162 5.32615 2.5473 5.19951 2.42342L5.16474 2.3886C4.78986 2.0133 4.28082 1.80228 3.75 1.80228C3.21918 1.80228 2.71014 2.0133 2.335 2.38886C1.95997 2.76347 1.74895 3.27251 1.74895 3.80333C1.74895 4.33415 1.95997 4.8432 2.33552 5.21833L2.37526 5.25807C2.49396 5.37948 2.52828 5.56876 2.45676 5.73082C2.37956 5.93688 2.22229 6.04935 2 6.05333C0.89543 6.05333 0 6.94876 0 8.05333C0 9.1579 0.89543 10.0533 2 10.0533H2.11333C2.28339 10.054 2.4392 10.1572 2.50724 10.316C2.58162 10.4846 2.5473 10.6739 2.42342 10.8005L2.3886 10.8353C2.0133 11.2101 1.80228 11.7192 1.80228 12.25C1.80228 12.7808 2.0133 13.2899 2.38886 13.665C2.76347 14.04 3.27251 14.251 3.80333 14.251C4.33415 14.251 4.8432 14.04 5.21833 13.6645L5.25807 13.6247C5.37948 13.506 5.56876 13.4717 5.73082 13.5432C5.93688 13.6204 6.04935 13.7777 6.05333 14C6.05333 15.1046 6.94876 16 8.05333 16C9.1579 16 10.0533 15.1046 10.0533 14V13.8867C10.054 13.7166 10.1572 13.5608 10.316 13.4928C10.4846 13.4184 10.6739 13.4527 10.8005 13.5766L10.8353 13.6114C11.2101 13.9867 11.7192 14.1977 12.25 14.1977C12.7808 14.1977 13.2899 13.9867 13.665 13.6111C14.04 13.2365 14.251 12.7275 14.251 12.1967C14.251 11.6658 14.04 11.1568 13.6645 10.7817L13.6247 10.7419C13.506 10.6205 13.4717 10.4312 13.5461 10.2626C13.6141 10.1039 13.7699 10.0007 13.9427 9.99999L14 10C15.1046 10 16 9.10457 16 8C16 6.89543 15.1046 6 14 6H13.8867ZM4.26193 3.3714C4.74975 3.84864 5.45648 4.00189 6.08652 3.78103C6.14702 3.77311 6.20629 3.7569 6.26262 3.73276C6.90983 3.45537 7.33052 2.82014 7.33333 2.11599L7.33333 2C7.33333 1.63181 7.63181 1.33333 8 1.33333C8.36819 1.33333 8.66667 1.63181 8.66667 2V2.06C8.66948 2.7668 9.09017 3.40204 9.73738 3.67943C10.3915 3.96818 11.1632 3.82826 11.6795 3.32324L11.7247 3.27807C11.85 3.15262 12.0197 3.08228 12.1967 3.08228C12.3736 3.08228 12.5433 3.15262 12.6683 3.27781C12.794 3.40338 12.8644 3.57306 12.8644 3.75C12.8644 3.92694 12.794 4.09662 12.6689 4.22167L12.6286 4.26193C12.1514 4.74975 11.9981 5.45648 12.219 6.08652C12.2269 6.14702 12.2431 6.20629 12.2672 6.26262C12.5446 6.90983 13.1799 7.33052 13.884 7.33333L14 7.33333C14.3682 7.33333 14.6667 7.63181 14.6667 8C14.6667 8.36819 14.3682 8.66667 14 8.66667H13.94C13.2332 8.66948 12.598 9.09017 12.3234 9.73082C12.0318 10.3915 12.1717 11.1632 12.6768 11.6795L12.7219 11.7247C12.8474 11.85 12.9177 12.0197 12.9177 12.1967C12.9177 12.3736 12.8474 12.5433 12.7222 12.6683C12.5966 12.794 12.4269 12.8644 12.25 12.8644C12.0731 12.8644 11.9034 12.794 11.7783 12.6689L11.7381 12.6286C11.2166 12.1184 10.4449 11.9785 9.78416 12.2701C9.1435 12.5446 8.72281 13.1799 8.72001 13.884L8.72 14C8.72 14.3682 8.42152 14.6667 8.05333 14.6667C7.68514 14.6667 7.38667 14.3682 7.38667 14V13.94C7.36952 13.1992 6.91095 12.558 6.23012 12.3076C5.60845 12.0318 4.83677 12.1717 4.32049 12.6768L4.27526 12.7219C4.14995 12.8474 3.98027 12.9177 3.80333 12.9177C3.62639 12.9177 3.45671 12.8474 3.33167 12.7222C3.20596 12.5966 3.13562 12.4269 3.13562 12.25C3.13562 12.0731 3.20596 11.9034 3.33114 11.7783L3.3714 11.7381C3.88159 11.2166 4.02151 10.4449 3.72991 9.78416C3.45537 9.1435 2.82014 8.72281 2.11599 8.72001L2 8.72C1.63181 8.72 1.33333 8.42152 1.33333 8.05333C1.33333 7.68514 1.63181 7.38667 2 7.38667H2.06C2.80081 7.36952 3.44196 6.91095 3.69236 6.23012C3.96818 5.60845 3.82826 4.83677 3.32324 4.32049L3.27807 4.27526C3.15262 4.14995 3.08228 3.98027 3.08228 3.80333C3.08228 3.62639 3.15262 3.45671 3.27781 3.33167C3.40338 3.20596 3.57306 3.13562 3.75 3.13562C3.92694 3.13562 4.09662 3.20596 4.22167 3.33114L4.26193 3.3714ZM8 10.6667C6.52724 10.6667 5.33333 9.47276 5.33333 8C5.33333 6.52724 6.52724 5.33333 8 5.33333C9.47276 5.33333 10.6667 6.52724 10.6667 8C10.6667 9.47276 9.47276 10.6667 8 10.6667ZM9.33333 8C9.33333 8.73638 8.73638 9.33333 8 9.33333C7.26362 9.33333 6.66667 8.73638 6.66667 8C6.66667 7.26362 7.26362 6.66667 8 6.66667C8.73638 6.66667 9.33333 7.26362 9.33333 8Z" fill="white"/>
</mask>
<g mask="url(#mask0)">
</g>
</symbol><symbol id="spiral" viewBox="0 0 44 45">
<path d="M24.8438 25.6183C26.3741 23.9686 25.861 21.3462 24.2864 20.0195C22.064 18.1466 18.7192 18.9804 17.0297 21.2941C14.8265 24.3106 15.7869 28.5781 18.6239 30.6368C22.14 33.1911 27.1109 31.8475 29.5283 28.2086C32.4276 23.8469 31.0025 17.9 26.8991 15.1226C22.0993 11.8733 15.4856 13.7361 12.3476 18.7024C8.74417 24.4028 10.6359 32.0422 16.0135 35.5323C22.0929 39.4836 30.3567 37.0976 34.2128 30.799C38.5204 23.7662 36.1606 14.4257 29.5119 10.2257C26.3982 8.25849 19.9143 6.98352 14.4003 9.77049C8.88639 12.5575 5.48125 20.3463 5.48125 20.3463" stroke="white" stroke-width="3.5" stroke-linecap="round" stroke-linejoin="round"/>
</symbol><symbol id="x-circle" viewBox="0 0 24 24">
<path fill-rule="evenodd" clip-rule="evenodd" d="M1 12C1 18.0751 5.92487 23 12 23C18.0751 23 23 18.0751 23 12C23 5.92487 18.0751 1 12 1C5.92487 1 1 5.92487 1 12ZM21 12C21 16.9706 16.9706 21 12 21C7.02944 21 3 16.9706 3 12C3 7.02944 7.02944 3 12 3C16.9706 3 21 7.02944 21 12ZM10.5858 12L8.29289 14.2929C7.90237 14.6834 7.90237 15.3166 8.29289 15.7071C8.68342 16.0976 9.31658 16.0976 9.70711 15.7071L12 13.4142L14.2929 15.7071C14.6834 16.0976 15.3166 16.0976 15.7071 15.7071C16.0976 15.3166 16.0976 14.6834 15.7071 14.2929L13.4142 12L15.7071 9.70711C16.0976 9.31658 16.0976 8.68342 15.7071 8.29289C15.3166 7.90237 14.6834 7.90237 14.2929 8.29289L12 10.5858L9.70711 8.29289C9.31658 7.90237 8.68342 7.90237 8.29289 8.29289C7.90237 8.68342 7.90237 9.31658 8.29289 9.70711L10.5858 12Z" fill="black"/>
</symbol><symbol id="zoom" viewBox="0 0 15 15">
    <!-- Generator: Sketch 58 (84663) - https://sketch.com -->
    <title>Group 3</title>
    <desc>Created with Sketch.</desc>
    <g id="Page-1" stroke="none" stroke-width="1" fill="none" fill-rule="evenodd">
        <g id="9.-sales-funnel" transform="translate(-128.000000, -82.000000)" stroke="#C9C9C9">
            <g id="search" transform="translate(120.000000, 75.000000)">
                <g id="Group-3" transform="translate(14.500000, 15.500000) rotate(45.000000) translate(-14.500000, -15.500000) translate(9.000000, 7.000000)">
                    <circle id="Oval" cx="5.5" cy="5.5" r="5.5"/>
                    <path d="M5.5,12.5 L5.5,16.5" id="Line-2" stroke-linecap="square"/>
                </g>
            </g>
        </g>
    </g>
</symbol></svg>