<svg width="203" height="61" viewBox="0 0 203 61" fill="none" xmlns="http://www.w3.org/2000/svg">
<path fill-rule="evenodd" clip-rule="evenodd" d="M101.28 22.448H105.44V30.128H105.568C106.016 29.616 106.592 29.2107 107.296 28.912C108 28.6133 108.779 28.464 109.632 28.464C111.552 28.464 113.019 29.12 114.032 30.432C115.045 31.744 115.552 33.744 115.552 36.432C115.552 39.312 114.843 41.4987 113.424 42.992C112.005 44.4853 110.059 45.232 107.584 45.232C106.219 45.232 104.971 45.12 103.84 44.896C102.709 44.672 101.856 44.4213 101.28 44.144V22.448ZM60 28.848H62.208V25.84L65.8793 24.7097L66.368 28.848H70.272V32.368H66.368V38.512C66.368 39.6213 66.48 40.416 66.704 40.896C66.928 41.376 67.3493 41.616 67.968 41.616C68.3947 41.616 68.7627 41.5733 69.072 41.488C69.3813 41.4027 69.728 41.2747 70.112 41.104L70.848 44.304C70.272 44.5813 69.6 44.816 68.832 45.008C68.064 45.2 67.2853 45.296 66.496 45.296C65.024 45.296 63.9413 44.9173 63.248 44.16C62.5547 43.4027 62.208 42.16 62.208 40.432V32.368H60V28.848ZM76.832 28.848V37.936C76.832 39.2373 76.9867 40.176 77.296 40.752C77.6053 41.328 78.208 41.616 79.104 41.616C79.8933 41.616 80.5493 41.3813 81.072 40.912C81.5947 40.4427 81.984 39.8667 82.24 39.184V28.848H86.4V39.984C86.4 40.8587 86.4427 41.7173 86.528 42.56C86.6133 43.4027 86.7413 44.1653 86.912 44.848H83.776L83.04 42.48H82.912C82.4213 43.2907 81.7387 43.9627 80.864 44.496C79.9893 45.0293 78.9547 45.296 77.76 45.296C76.9493 45.296 76.224 45.1893 75.584 44.976C74.944 44.7627 74.4107 44.4107 73.984 43.92C73.5573 43.4293 73.232 42.768 73.008 41.936C72.784 41.104 72.672 40.0587 72.672 38.8V28.848H76.832ZM97.088 32.4C97.6213 32.4 98.2187 32.5173 98.88 32.752L99.424 28.848C98.72 28.6133 98.0907 28.496 97.536 28.496C96.704 28.496 95.9787 28.7093 95.36 29.136C94.7413 29.5627 94.2507 30.1707 93.888 30.96H93.76L93.28 28.848H90.048V44.848H94.208V34.512C94.3787 33.8933 94.7147 33.3867 95.216 32.992C95.7173 32.5973 96.3413 32.4 97.088 32.4ZM106.544 32.576C107.024 32.1813 107.648 31.984 108.416 31.984C110.315 31.984 111.264 33.5093 111.264 36.56C111.264 38.352 110.971 39.6587 110.384 40.48C109.797 41.3013 108.939 41.712 107.808 41.712C107.36 41.712 106.939 41.68 106.544 41.616C106.149 41.552 105.781 41.4347 105.44 41.264V34.288C105.696 33.5413 106.064 32.9707 106.544 32.576ZM117.664 36.848C117.664 34.1387 118.325 32.0533 119.648 30.592C120.971 29.1307 122.827 28.4 125.216 28.4C126.496 28.4 127.605 28.6027 128.544 29.008C129.483 29.4133 130.261 29.984 130.88 30.72C131.499 31.456 131.963 32.3467 132.272 33.392C132.581 34.4373 132.736 35.5893 132.736 36.848C132.736 39.5573 132.08 41.6427 130.768 43.104C129.456 44.5653 127.605 45.296 125.216 45.296C123.936 45.296 122.827 45.0933 121.888 44.688C120.949 44.2827 120.165 43.712 119.536 42.976C118.907 42.24 118.437 41.3493 118.128 40.304C117.819 39.2587 117.664 38.1067 117.664 36.848ZM122.144 38.8C122.016 38.2027 121.952 37.552 121.952 36.848C121.952 35.0987 122.24 33.84 122.816 33.072C123.392 32.304 124.192 31.92 125.216 31.92C126.389 31.92 127.221 32.3733 127.712 33.28C128.203 34.1867 128.448 35.376 128.448 36.848C128.448 38.5547 128.181 39.8027 127.648 40.592C127.115 41.3813 126.304 41.776 125.216 41.776C124.64 41.776 124.144 41.6533 123.728 41.408C123.312 41.1627 122.976 40.816 122.72 40.368C122.464 39.92 122.272 39.3973 122.144 38.8Z" fill="url(#turbocrmlogo_linear1)"/>
<path fill-rule="evenodd" clip-rule="evenodd" d="M149.32 44.976C150.376 44.7627 151.245 44.4107 151.928 43.92L151.032 40.336C150.541 40.6347 149.965 40.88 149.304 41.072C148.643 41.264 147.832 41.36 146.872 41.36C145.848 41.36 144.947 41.1733 144.168 40.8C143.389 40.4267 142.739 39.904 142.216 39.232C141.693 38.56 141.304 37.7493 141.048 36.8C140.792 35.8507 140.664 34.8 140.664 33.648C140.664 31.0027 141.203 29.0507 142.28 27.792C143.357 26.5333 144.781 25.904 146.552 25.904C147.512 25.904 148.328 25.9573 149 26.064C149.672 26.1707 150.253 26.3413 150.744 26.576L151.608 22.864C151.032 22.6293 150.301 22.4267 149.416 22.256C148.531 22.0853 147.448 22 146.168 22C144.973 22 143.779 22.1973 142.584 22.592C141.389 22.9867 140.307 23.6373 139.336 24.544C138.365 25.4507 137.576 26.6453 136.968 28.128C136.36 29.6107 136.056 31.4507 136.056 33.648C136.056 35.76 136.328 37.5573 136.872 39.04C137.416 40.5227 138.147 41.728 139.064 42.656C139.981 43.584 141.043 44.256 142.248 44.672C143.453 45.088 144.728 45.296 146.072 45.296C147.181 45.296 148.264 45.1893 149.32 44.976ZM156.232 22.432C155.667 22.5067 155.139 22.5867 154.648 22.672V44.848H159.032V35.664L161.336 36.08L166.424 44.848H171.48L166.36 36.304L164.792 35.312C166.221 34.864 167.363 34.064 168.216 32.912C169.069 31.76 169.496 30.2667 169.496 28.432C169.496 27.1947 169.256 26.1653 168.776 25.344C168.296 24.5227 167.656 23.8773 166.856 23.408C166.056 22.9387 165.149 22.608 164.136 22.416C163.123 22.224 162.093 22.128 161.048 22.128C160.6 22.128 160.109 22.1387 159.576 22.16C159.043 22.1813 158.493 22.2133 157.928 22.256C157.363 22.2987 156.797 22.3573 156.232 22.432ZM161.368 26.032C160.92 26.032 160.477 26.0427 160.04 26.064C159.603 26.0853 159.267 26.128 159.032 26.192V32.688H160.888C162.104 32.688 163.075 32.4107 163.8 31.856C164.525 31.3013 164.888 30.384 164.888 29.104C164.888 28.144 164.589 27.392 163.992 26.848C163.395 26.304 162.52 26.032 161.368 26.032ZM191.768 28.784L191.288 33.232V44.848H195.672V22.448H191.704L186.04 32.624L185.08 35.248H184.952L183.896 32.688L177.912 22.448H173.912V44.848H178.072V33.2L177.432 28.784H177.592L179 32.336L184.024 40.72H185.432L190.2 32.368L191.576 28.784H191.768Z" fill="url(#turbocrmlogo_linear2)"/>
<path fill="none" d="M36.1584 36.0771C38.3383 33.7625 37.5834 30.0605 35.3175 28.1777C32.1194 25.5197 27.3339 26.6702 24.9309 29.9201C21.7974 34.1572 23.2056 40.1824 27.2856 43.107C32.3424 46.7357 39.4536 44.8787 42.8893 39.7655C47.01 33.6367 44.9233 25.2397 39.0235 21.292C32.1225 16.6736 22.6615 19.2503 18.2035 26.2299C13.0842 34.2411 15.8524 45.0283 23.583 49.9908C32.3225 55.6088 44.1435 52.3068 49.6202 43.4539C55.7382 33.5691 52.2867 20.3794 42.7295 14.4064C38.2538 11.6087 28.9551 9.76158 21.0766 13.6499C13.1982 17.5382 8.37888 28.496 8.37888 28.496" stroke="#4D4D4D" stroke-width="4.4" stroke-linecap="round" stroke-linejoin="round"/>
<defs>
<linearGradient id="turbocrmlogo_linear1" x1="132.736" y1="24.1826" x2="71.0441" y2="24.1826" gradientUnits="userSpaceOnUse">
<stop stop-color="#0093FF"/>
<stop offset="1" stop-color="#4D4D4D"/>
</linearGradient>
<linearGradient id="turbocrmlogo_linear2" x1="195.672" y1="22" x2="136.056" y2="22" gradientUnits="userSpaceOnUse">
<stop stop-color="#9F07FC"/>
<stop offset="1" stop-color="#0391F8"/>
</linearGradient>
</defs>
</svg>
